<?xml version="1.0" encoding="UTF-8"?>
<svg width="24px" height="18px" viewBox="0 0 24 18" version="1.1" xmlns="http://www.w3.org/2000/svg" xmlns:xlink="http://www.w3.org/1999/xlink">
    <!-- Generator: sketchtool 61.2 (101010) - https://sketch.com -->
    <title>04AFC28E-0AF4-4E1F-B769-70410D7CCE46@3x</title>
    <desc>Created with sketchtool.</desc>
    <g id="High-fidelity" stroke="none" stroke-width="1" fill="none" fill-rule="evenodd">
        <g id="Home-v2.1-Copy-65" transform="translate(-528.000000, -536.000000)" fill="#CD7851" fill-rule="nonzero">
            <g id="icon_education" transform="translate(528.000000, 536.000000)">
                <g id="e-learning-laptop-math">
                    <path d="M12.25,10.751 C12.4490857,10.751 12.6400029,10.6718453 12.780684,10.5309767 C12.921365,10.390108 13.0002654,10.1990856 13,10 L13,9.75 C13,9.47385763 13.2238576,9.25 13.5,9.25 L13.75,9.25 C14.1642136,9.25 14.5,8.91421356 14.5,8.5 C14.5,8.08578644 14.1642136,7.75 13.75,7.75 L13.5,7.75 C13.2238576,7.75 13,7.52614237 13,7.25 L13,7 C13,6.58578644 12.6642136,6.25 12.25,6.25 C11.8357864,6.25 11.5,6.58578644 11.5,7 L11.5,7.25 C11.5,7.52614237 11.2761424,7.75 11,7.75 L10.75,7.75 C10.3357864,7.75 10,8.08578644 10,8.5 C10,8.91421356 10.3357864,9.25 10.75,9.25 L11,9.25 C11.2761424,9.25 11.5,9.47385763 11.5,9.75 L11.5,10 C11.4997346,10.1990856 11.578635,10.390108 11.719316,10.5309767 C11.8599971,10.6718453 12.0509143,10.751 12.25,10.751 L12.25,10.751 Z" id="Shape"></path>
                    <path d="M15.25,12.251 L19.25,12.251 C19.6642136,12.251 20,11.9152136 20,11.501 C20,11.0867864 19.6642136,10.751 19.25,10.751 L18.5,10.751 C18.2238576,10.751 18,10.5271424 18,10.251 L18,5.751 C18,5.19871525 17.5522847,4.751 17,4.751 C16.6403506,4.751 16.2956905,4.89507963 16.043,5.151 L14.72,6.471 C14.4356289,6.76514965 14.4394718,7.23293354 14.728637,7.52237157 C15.0178023,7.81180961 15.4855823,7.81609356 15.78,7.532 L16.073,7.239 C16.1445071,7.16731158 16.2521947,7.14583493 16.3457316,7.18460785 C16.4392686,7.22338076 16.5001812,7.31474556 16.5,7.416 L16.5,10.251 C16.5,10.5271424 16.2761424,10.751 16,10.751 L15.25,10.751 C14.8357864,10.751 14.5,11.0867864 14.5,11.501 C14.5,11.9152136 14.8357864,12.251 15.25,12.251 L15.25,12.251 Z" id="Shape"></path>
                    <path d="M8.4,9.7 C9.43457299,8.92407026 9.78872931,7.53213106 9.25080011,6.35610367 C8.71287091,5.18007629 7.42821642,4.53774905 6.16463699,4.81302212 C4.90105757,5.08829518 3.99995169,6.20678377 3.99995169,7.5 C3.99995169,7.91421356 4.33578644,8.25 4.75,8.25 C5.16421356,8.25 5.5,7.91421356 5.5,7.5 C5.5,6.91217444 5.90957162,6.40377054 6.48392591,6.27864642 C7.05828019,6.15352229 7.64221405,6.44548922 7.88672732,6.98004712 C8.1312406,7.51460503 7.97026045,8.14730466 7.5,8.5 L4.3,10.9 C4.04174176,11.0936937 3.93640199,11.4309142 4.03848753,11.7371708 C4.14057306,12.0434274 4.42717719,12.25 4.75,12.25 L8.75,12.25 C9.16421356,12.25 9.5,11.9142136 9.5,11.5 C9.5,11.0857864 9.16421356,10.75 8.75,10.75 L7.75,10.75 C7.64260547,10.7503726 7.54707252,10.6818469 7.513,10.58 C7.47880654,10.4776687 7.51383477,10.3649342 7.6,10.3 L8.4,9.7 Z" id="Shape"></path>
                    <path d="M2,13.5 C2.55228475,13.5 3,13.0522847 3,12.5 L3,3 C3,2.44771525 3.44771525,2 4,2 L20,2 C20.5522847,2 21,2.44771525 21,3 L21,12.5 C21,13.0522847 21.4477153,13.5 22,13.5 C22.5522847,13.5 23,13.0522847 23,12.5 L23,3 C23,1.34314575 21.6568542,0 20,0 L4,0 C2.34314575,0 1,1.34314575 1,3 L1,12.5 C1,13.0522847 1.44771525,13.5 2,13.5 Z" id="Shape"></path>
                    <path d="M23.5,15 L0.5,15 C0.223857625,15 0,15.2238576 0,15.5 C0,16.8807119 1.11928813,18 2.5,18 L21.5,18 C22.1630412,18 22.798926,17.7366079 23.267767,17.267767 C23.7366079,16.798926 24,16.1630412 24,15.5 C24,15.2238576 23.7761424,15 23.5,15 Z" id="Shape"></path>
                </g>
            </g>
        </g>
    </g>
</svg>