<svg id="Icons_reduced" data-name="Icons reduced" xmlns="http://www.w3.org/2000/svg" viewBox="0 0 708.1688 767.3731"><defs><style>.cls-1,.cls-11,.cls-12,.cls-13,.cls-14,.cls-15,.cls-18,.cls-19,.cls-2,.cls-20,.cls-21,.cls-3,.cls-5,.cls-7,.cls-8,.cls-9{fill:none;}.cls-1,.cls-2,.cls-3{stroke:#40a9ff;}.cls-1,.cls-11,.cls-12,.cls-13,.cls-14,.cls-17,.cls-19,.cls-20,.cls-21,.cls-22,.cls-23,.cls-3,.cls-8{stroke-miterlimit:10;}.cls-1,.cls-11,.cls-12,.cls-13,.cls-18,.cls-2,.cls-20,.cls-22,.cls-3,.cls-4,.cls-5,.cls-7,.cls-8,.cls-9{stroke-width:1.5px;}.cls-11,.cls-13,.cls-15,.cls-2,.cls-3,.cls-4,.cls-5,.cls-9{stroke-linecap:round;}.cls-15,.cls-18,.cls-2,.cls-4,.cls-5,.cls-7,.cls-9{stroke-linejoin:round;}.cls-23,.cls-4,.cls-6{fill:#5cc2a0;}.cls-14,.cls-15,.cls-20,.cls-21,.cls-22,.cls-23,.cls-4,.cls-5,.cls-7{stroke:#5cc2a0;}.cls-11,.cls-18,.cls-19,.cls-8,.cls-9{stroke:#ed6e3b;}.cls-10{fill:#ed6e3b;}.cls-12,.cls-13,.cls-17{stroke:#ffb91c;}.cls-14,.cls-15{stroke-width:1.3px;}.cls-16,.cls-17{fill:#ffb91c;}.cls-17{stroke-width:1.0309px;}.cls-21{stroke-width:3px;}.cls-22{fill:#fff;}</style></defs><title>Header_icons</title><circle class="cls-1" cx="334.2402" cy="757.8892" r="1.4178"/><circle class="cls-1" cx="302.4935" cy="726.1425" r="1.4178"/><path class="cls-1" d="M1436.6286,891.8822" transform="translate(-1141.4507 -154.9269)"/><circle class="cls-1" cx="323.4279" cy="765.2053" r="1.4178"/><circle class="cls-1" cx="295.1779" cy="736.9553" r="1.4178"/><path class="cls-2" d="M1465.7765,879.366l-5.4363,17.0473L1472.0534,884.7c.03.003-11.7132,11.7132-11.7133,11.7132l17.0543-5.4294a1.1341,1.1341,0,0,0,.6044-.5042l5.298-9.2268a1.1345,1.1345,0,0,0-.1816-1.367l-6.2407-6.2407a1.1345,1.1345,0,0,0-1.367-.1816l-9.2268,5.298A1.1341,1.1341,0,0,0,1465.7765,879.366Z" transform="translate(-1141.4507 -154.9269)"/><rect class="cls-2" x="1480.9978" y="866.3783" width="7.2465" height="11.5221" rx="1.6075" transform="translate(-1323.3109 1150.3024) rotate(-45)"/><line class="cls-3" x1="334.2402" y1="757.8892" x2="302.4935" y2="726.1425"/><circle class="cls-1" cx="318.3669" cy="742.0158" r="1.4178"/><path class="cls-3" d="M1436.6286,891.8823a21.9741,21.9741,0,0,1,28.25,28.25" transform="translate(-1141.4507 -154.9269)"/><circle class="cls-2" cx="330.4807" cy="729.902" r="1.3606"/><rect class="cls-4" x="1795.6268" y="468.9766" width="53.6584" height="5.0568" rx="0.8579" transform="translate(-964.1125 -598.4359) rotate(14.5773)"/><line class="cls-5" x1="672.1768" y1="350.5272" x2="670.4262" y2="357.2588"/><line class="cls-5" x1="660.8477" y1="362.0835" x2="670.4262" y2="357.2588"/><line class="cls-5" x1="676.4407" y1="366.1385" x2="670.4262" y2="357.2588"/><rect class="cls-5" x="1793.311" y="473.428" width="48.8249" height="32.5499" transform="translate(-959.6846 -596.6589) rotate(14.5773)"/><path class="cls-6" d="M1806.4969,490.6512a.5806.5806,0,0,1-.306.3864.7442.7442,0,0,1-.5429.0432,1.0136,1.0136,0,0,1-.3851-.187l-7.2334-5.8467a1.0033,1.0033,0,0,1-.35-.4919,1.0832,1.0832,0,0,1-.0112-.6208.99.99,0,0,1,.3048-.5056,1.0184,1.0184,0,0,1,.5424-.2487l9.1662-1.5824a1.1333,1.1333,0,0,1,.4323.0034.7478.7478,0,0,1,.4528.3023.6052.6052,0,0,1,.0738.5069.5939.5939,0,0,1-.4842.4382l-8.93,1.5126,7.0673,5.6524A.6368.6368,0,0,1,1806.4969,490.6512Z" transform="translate(-1141.4507 -154.9269)"/><path class="cls-6" d="M1838.0012,493.8385a1.0167,1.0167,0,0,1,.0191.59,1.0931,1.0931,0,0,1-.3127.5362,1.0022,1.0022,0,0,1-.544.2594l-9.1671,1.5817a1.0087,1.0087,0,0,1-.4271-.024.75.75,0,0,1-.4419-.299.564.564,0,0,1-.09-.49.6334.6334,0,0,1,.5093-.453l8.906-1.4981-7.0432-5.667a.5663.5663,0,0,1-.23-.6234.6065.6065,0,0,1,.3133-.4062.741.741,0,0,1,.5419-.0433,1.1354,1.1354,0,0,1,.38.207l7.2342,5.8478A1.0284,1.0284,0,0,1,1838.0012,493.8385Z" transform="translate(-1141.4507 -154.9269)"/><path class="cls-7" d="M1816.014,496.2923c-.392-.1019-5.9351-5.4906-5.0466-10.1748a3.8908,3.8908,0,0,1,4.6966-3.1346c2.7036.7031,2.5156,4.0334,2.4766,5.12.4878-.9715,1.8965-3.9826,4.6653-3.2625a3.8889,3.8889,0,0,1,2.563,5.0252C1823.8661,494.3856,1816.37,496.3848,1816.014,496.2923Z" transform="translate(-1141.4507 -154.9269)"/><path class="cls-8" d="M1747.8632,319.8916l-3.08-.7817a1.432,1.432,0,0,1-1.0328-1.7354l2.3643-9.3154Z" transform="translate(-1141.4507 -154.9269)"/><path class="cls-9" d="M1776.96,307.31a2.0666,2.0666,0,0,0-2.87.95l-4.39,8.73a2.1458,2.1458,0,0,0,.95,2.88l15.7438,7.958.0925.3931a1.4322,1.4322,0,0,1-1.7354,1.0328L1762.75,323.67l-2.9792-20.16a2.1424,2.1424,0,0,0-2.43-1.8028l-9.7809,1.4439a.9926.9926,0,0,0-.2115.0494l5.5384-21.8211a1.4321,1.4321,0,0,1,1.7354-1.0328l39.9674,10.1439a1.4323,1.4323,0,0,1,1.0329,1.7355l-5.51,21.71Z" transform="translate(-1141.4507 -154.9269)"/><line class="cls-8" x1="610.574" y1="130.5881" x2="653.134" y2="141.3901"/><circle class="cls-10" cx="650.4263" cy="137.7991" r="1.0777"/><circle class="cls-10" cx="646.9459" cy="136.9158" r="1.0777"/><circle class="cls-10" cx="643.4656" cy="136.0324" r="1.0777"/><rect class="cls-8" x="1754.2955" y="294.7212" width="35.3056" height="5.2396" rx="1.428" transform="translate(-1013.8477 -581.7001) rotate(14.2413)"/><path class="cls-8" d="M1761.7635,331.648l-9.7878,1.4422a2.1448,2.1448,0,0,1-2.43-1.8028l-1.6823-11.3958-1.7482-11.8325-.3653-2.4794a2.14,2.14,0,0,1,1.5983-2.379.9926.9926,0,0,1,.2115-.0494l9.7809-1.4439a2.1424,2.1424,0,0,1,2.43,1.8028l2.9792,20.16.8166,5.548A2.1425,2.1425,0,0,1,1761.7635,331.648Z" transform="translate(-1141.4507 -154.9269)"/><line class="cls-11" x1="607.7512" y1="153.2089" x2="615.7544" y2="152.0271"/><line class="cls-11" x1="608.8734" y1="160.8091" x2="616.8767" y2="159.6273"/><line class="cls-11" x1="609.4204" y1="164.5132" x2="617.4236" y2="163.3315"/><line class="cls-11" x1="609.9673" y1="168.2174" x2="617.9706" y2="167.0356"/><line class="cls-11" x1="610.5143" y1="171.9215" x2="618.5175" y2="170.7398"/><path class="cls-8" d="M1792.92,317.75l-4.39,8.73a2.1256,2.1256,0,0,1-1.43,1.11,1.8353,1.8353,0,0,1-.47.06,2.0067,2.0067,0,0,1-.98-.22l-15-7.56a2.0612,2.0612,0,0,1-1.01-1.07,2.1287,2.1287,0,0,1,.06-1.81l4.39-8.73a2.1578,2.1578,0,0,1,2.87-.95l13.15,6.63,1.86.93a2.1628,2.1628,0,0,1,1.01,1.08A2.107,2.107,0,0,1,1792.92,317.75Z" transform="translate(-1141.4507 -154.9269)"/><line class="cls-8" x1="645.7386" y1="172.817" x2="645.6526" y2="172.6625"/><line class="cls-8" x1="651.6914" y1="161.0017" x2="651.5251" y2="161.0184"/><line class="cls-9" x1="634.0493" y1="152.223" x2="645.9706" y2="172.5569"/><line class="cls-9" x1="651.5292" y1="161.0231" x2="628.1893" y2="163.873"/><path class="cls-1" d="M1289.3854,303.8868l6.242,14.5213a1.9816,1.9816,0,0,1-1.0349,2.5955l-.966.4152a1.9815,1.9815,0,0,1-2.5954-1.0349l-6.2421-14.5214a1.9876,1.9876,0,0,1,1.0322-2.6019l.9659-.4152A1.9876,1.9876,0,0,1,1289.3854,303.8868Z" transform="translate(-1141.4507 -154.9269)"/><path class="cls-1" d="M1284.5215,305.24l6.7771,15.766-1.2382.5323a8.5726,8.5726,0,0,1-10.8305-12.1343,3.7924,3.7924,0,0,1,.2229-.357,8.3682,8.3682,0,0,1,2.8961-2.804,6.3742,6.3742,0,0,1,.5705-.299,3.8069,3.8069,0,0,1,.3639-.1718Z" transform="translate(-1141.4507 -154.9269)"/><path class="cls-1" d="M1327.2409,296.2167a8.6039,8.6039,0,0,1-4.4944,11.2716l-1.2381.5322-6.7771-15.7661,1.3029-.56a8.4878,8.4878,0,0,1,4.3523-.5958,8.569,8.569,0,0,1,6.8544,5.1182Z" transform="translate(-1141.4507 -154.9269)"/><path class="cls-1" d="M1314.9988,292.8768l6.242,14.5213a1.9831,1.9831,0,0,1-1.0414,2.5983l-.9594.4124a1.9878,1.9878,0,0,1-2.602-1.0321l-6.242-14.5214a1.9936,1.9936,0,0,1,1.0386-2.6047l.9594-.4124A1.9891,1.9891,0,0,1,1314.9988,292.8768Z" transform="translate(-1141.4507 -154.9269)"/><path class="cls-1" d="M1280.0627,307.9057l-1.3733-3.1948a21.0314,21.0314,0,0,1,10.9858-27.5511l1.3064-.5616a21.0314,21.0314,0,0,1,27.5511,10.9859l1.4265,3.3187" transform="translate(-1141.4507 -154.9269)"/><path class="cls-1" d="M1284.2513,305.2535l-.6265-1.4576a16.2813,16.2813,0,0,1,8.5039-21.3267l1.0174-.4373a16.2812,16.2812,0,0,1,21.3266,8.5039l.6292,1.4636" transform="translate(-1141.4507 -154.9269)"/><path class="cls-12" d="M1177.3027,459.7387c2.8932,6.4473-.5815,9.465.206,13.8066a1.6711,1.6711,0,0,1-.8105,1.9411l-5.0786,2.2791a1.6772,1.6772,0,0,1-1.9889-.6849c-2.72-3.4744-7.2842-2.8846-10.1775-9.3319a9.7872,9.7872,0,1,1,17.85-8.01Z" transform="translate(-1141.4507 -154.9269)"/><path class="cls-13" d="M1166.4023,457.464a7.2766,7.2766,0,0,1,7.2871,5.09" transform="translate(-1141.4507 -154.9269)"/><rect class="cls-13" x="1171.5059" y="476.3471" width="7.8861" height="6.312" rx="1.2731" transform="translate(-1234.7362 368.3547) rotate(-24.1684)"/><path class="cls-13" d="M1174.895,482.2616h4.8216a.6641.6641,0,0,1,.6641.6641v.1021a1.9923,1.9923,0,0,1-1.9923,1.9923h-2.1652a1.9923,1.9923,0,0,1-1.9923-1.9923v-.1021a.6641.6641,0,0,1,.6641-.6641Z" transform="translate(-1236.2675 369.4776) rotate(-24.1684)"/><line class="cls-13" x1="9.8677" y1="312.2065" x2="0.75" y2="313.6781"/><line class="cls-13" x1="10.7908" y1="303.169" x2="2.1588" y2="299.8846"/><line class="cls-13" x1="16.1089" y1="295.8038" x2="10.2756" y2="288.6434"/><line class="cls-13" x1="24.3972" y1="292.0844" x2="22.9256" y2="282.9667"/><line class="cls-13" x1="33.4347" y1="293.0074" x2="36.7191" y2="284.3755"/><line class="cls-13" x1="40.7999" y1="298.3256" x2="47.9603" y2="292.4923"/><rect class="cls-14" x="1389.5709" y="704.8228" width="29.3301" height="29.3301" rx="1.2434" transform="translate(-1305.3669 390.089) rotate(-20.7806)"/><rect class="cls-14" x="1392.1752" y="707.7169" width="22.3352" height="18.8348" transform="translate(-1304.5899 389.619) rotate(-20.7806)"/><path class="cls-15" d="M1415.9207,722.3837l-6.2691,2.374-2.7975-1.8171,1.0968-3.945a.9619.9619,0,0,1,1.42-.5595Z" transform="translate(-1141.4507 -154.9269)"/><path class="cls-15" d="M1409.7087,724.794l-13.467,5.1068-.7152-1.8967,2.1012-8.6581a1.488,1.488,0,0,1,2.29-.9153l6.9365,4.51,2.7975,1.8171Z" transform="translate(-1141.4507 -154.9269)"/><path class="cls-6" d="M1406.0852,714.435a1.8357,1.8357,0,0,1-1.708-1.1787,1.8262,1.8262,0,0,1,1.7051-2.4737,1.8262,1.8262,0,0,1,.0029,3.6524Z" transform="translate(-1141.4507 -154.9269)"/><path class="cls-6" d="M1406.0833,711.433a1.1756,1.1756,0,0,1,.4174,2.2746,1.17,1.17,0,0,1-.4165.0771,1.1759,1.1759,0,0,1-.0009-2.3517m0-1.3a2.4756,2.4756,0,1,0,2.3147,1.5976,2.4667,2.4667,0,0,0-2.3147-1.5976Z" transform="translate(-1141.4507 -154.9269)"/><rect class="cls-14" x="1427.4736" y="729.7276" width="26.6769" height="26.6769" rx="1.131" transform="translate(-348.1803 -898.0562) rotate(39.1756)"/><rect class="cls-14" x="1432.101" y="732.7256" width="20.3147" height="17.1309" transform="translate(-348.9764 -899.3688) rotate(39.1756)"/><path class="cls-15" d="M1443.8582,753.5809l-4.7277-3.8456.1549-3.0347,3.6056-.9288a.8738.8738,0,0,1,1.0926.8607Z" transform="translate(-1141.4507 -154.9269)"/><path class="cls-15" d="M1439.1305,749.7353l-.0031.0525-10.1571-8.272,1.17-1.4292,7.7761-2.2907a1.3523,1.3523,0,0,1,1.7582,1.387l-.3894,7.5177Z" transform="translate(-1141.4507 -154.9269)"/><path class="cls-6" d="M1446.0921,741.4984a1.249,1.249,0,0,1-.3663-.7626,1.3168,1.3168,0,0,1,.2061-.8018,3.3694,3.3694,0,0,0,.16,1.5644Z" transform="translate(-1141.4507 -154.9269)"/><path class="cls-6" d="M1447.6869,738.226h0Zm0,0a2.6716,2.6716,0,0,0-2.6088,2.5653,2.4074,2.4074,0,0,0,2.5971,1.948,3.5338,3.5338,0,0,0,.4013-.023,2.287,2.287,0,0,1-1.5152-2.0944,2.4361,2.4361,0,0,1,1.1256-2.3959Z" transform="translate(-1141.4507 -154.9269)"/><path class="cls-12" d="M1631.9953,669.8425c3.0586,7.2783-1.6214,14.4557-8.9146,17.6661a18.0951,18.0951,0,0,1-1.7481.6686c4.821-2.4852,7.8833-4.8651,7.11-9.1459-.7038-3.8555-6.7368-8.5047-13.0478-1.65-5.1091,5.5442-10.72,1.0223-8.4587,7.13a7.3556,7.3556,0,0,0,4.6019,4.1558c-5.9536-1.3372-10.69-5.5616-12.0554-10.3431-.8011-2.8253-.3741-4.8181.45-5.24,2.5519-1.3051,3.7051,4.2811,13.8732-5.0071.1489-.135.2977-.27.4506-.3971a8.6,8.6,0,0,0,11.8558-3.0441A9.7677,9.7677,0,0,1,1631.9953,669.8425Z" transform="translate(-1141.4507 -154.9269)"/><path class="cls-12" d="M1626.3486,656.5355a8.4418,8.4418,0,0,1-.2356,8.1,8.6,8.6,0,0,1-11.8558,3.0441,8.2878,8.2878,0,0,1-3.1337-3.3577,8.5508,8.5508,0,0,1,15.2251-7.7867Z" transform="translate(-1141.4507 -154.9269)"/><path class="cls-16" d="M1633.449,655.5308c.7461,1.4587-1.5738,4.0221-5.1408,6.0654-2.24,1.2831-5.0095-.1564-3.7274-1.2214,2.3519-1.9538,1.0145-3.2669,2.4058-3.9785.7733-.3955,1.5374.6388,2.4388.2914C1632.4026,655.5405,1632.8578,654.375,1633.449,655.5308Z" transform="translate(-1141.4507 -154.9269)"/><path class="cls-12" d="M1628.443,679.0313c.7729,4.2808-2.2894,6.6607-7.11,9.1459l-.0157.008a12.87,12.87,0,0,1-9.743.493c-.02,0-.0237-.0075-.0355-.0112a7.3556,7.3556,0,0,1-4.6019-4.1558c-2.2616-6.1075,3.35-1.5856,8.4587-7.13C1621.7062,670.5266,1627.7392,675.1758,1628.443,679.0313Z" transform="translate(-1141.4507 -154.9269)"/><ellipse class="cls-17" cx="1620.3482" cy="658.7168" rx="1.3698" ry="1.3556" transform="translate(-1263.6675 655.1284) rotate(-27.0867)"/><path class="cls-8" d="M1492.9714,564.89l2.4465,5.8681a1.76,1.76,0,0,1-.9471,2.3016l-29.5622,12.3253a1.76,1.76,0,0,1-2.3015-.9471l-16.8832-40.4941a1.76,1.76,0,0,1,.9471-2.3015l2.3256-.97,15.7888,37.87a1.76,1.76,0,0,0,2.3015.947l23.9933-10.0034Z" transform="translate(-1141.4507 -154.9269)"/><path class="cls-18" d="M1448.2032,538.7663l17.2615,41.4016,25.6176-10.6806-2.0962-5.0276a1.76,1.76,0,0,1,.9471-2.3015l5.0277-2.0962-14.4882-34.75a1.76,1.76,0,0,0-2.3015-.9471l-29.0209,12.1A1.76,1.76,0,0,0,1448.2032,538.7663Z" transform="translate(-1141.4507 -154.9269)"/><rect class="cls-18" x="1466.1103" y="556.4813" width="15.6038" height="9.6595" transform="translate(-1243.9508 455.4922) rotate(-22.6327)"/><path class="cls-9" d="M1481.77,547.1669a6.9065,6.9065,0,0,1-1.9737,7.9834l-.5418-1.2994-6.0538,2.524a6.9087,6.9087,0,1,1,8.3006-9.78C1481.5965,546.7792,1481.6885,546.9709,1481.77,547.1669Z" transform="translate(-1141.4507 -154.9269)"/><line class="cls-19" x1="339.8458" y1="391.3062" x2="336.5247" y2="399.3768"/><polygon class="cls-10" points="323.312 385.323 321.397 400.128 335.176 394.383 323.312 385.323"/><polyline class="cls-18" points="353.508 405.134 351.521 409.963 349.629 414.559"/><rect class="cls-10" x="1474.0447" y="522.4604" width="1.8662" height="6.4642" rx="0.9331" transform="translate(-1230.162 453.1598) rotate(-22.6327)"/><rect class="cls-10" x="1468.3725" y="524.8253" width="1.8662" height="6.4642" rx="0.9331" transform="translate(-1231.5088 451.1599) rotate(-22.6327)"/><rect class="cls-10" x="1462.7003" y="527.1902" width="1.8662" height="6.4642" rx="0.9331" transform="translate(-1232.8557 449.1592) rotate(-22.6327)"/><rect class="cls-10" x="1457.0282" y="529.5551" width="1.8662" height="6.4642" rx="0.9331" transform="translate(-1234.2025 447.16) rotate(-22.6328)"/><rect class="cls-10" x="1451.356" y="531.92" width="1.8662" height="6.4642" rx="0.9331" transform="translate(-1235.5495 445.1559) rotate(-22.6326)"/><line class="cls-19" x1="333.7484" y1="388.1277" x2="328.9253" y2="399.8485"/><line class="cls-19" x1="332.0997" y1="401.1988" x2="337.2192" y2="388.7579"/><path class="cls-20" d="M1519.5873,159.1261h25.9842a4.2332,4.2332,0,0,1,4.2332,4.2332v32.7641a4.2332,4.2332,0,0,1-4.2332,4.2332h-25.9842a.7055.7055,0,0,1-.7055-.7055V159.8317A.7055.7055,0,0,1,1519.5873,159.1261Z" transform="translate(-1021.4991 -596.4847) rotate(17.0329)"/><line class="cls-21" x1="405.6727" y1="7.3368" x2="393.6425" y2="46.6053"/><rect class="cls-20" x="1552.9327" y="169.9821" width="4.6272" height="4.4212" transform="translate(-1022.7933 -602.9388) rotate(17.0329)"/><rect class="cls-20" x="1550.4417" y="178.3198" width="7.3866" height="4.4212" transform="translate(-1020.3998 -602.2475) rotate(17.0329)"/><rect class="cls-20" x="1548.0506" y="185.99" width="5.5886" height="4.4212" transform="translate(-1018.2974 -600.9474) rotate(17.0329)"/><polygon class="cls-6" points="376.473 49.848 375.533 46.922 373.115 48.819 375.496 41.046 378.855 42.075 376.473 49.848"/><polygon class="cls-22" points="384.26 11.2 387.868 15.657 375.485 25.716 371.878 21.258 384.26 11.2"/><path class="cls-20" d="M1514.4029,177.5127l1.4586,1.8022a1.8032,1.8032,0,0,1-.032,2.5253l-8.6612,7.0356a1.7957,1.7957,0,0,1-2.473-.4906l-1.4587-1.8021a1.8035,1.8035,0,0,1,.032-2.5254l8.6613-7.0355A1.7957,1.7957,0,0,1,1514.4029,177.5127Z" transform="translate(-1141.4507 -154.9269)"/><path class="cls-20" d="M1530.2534,163.3035l2.7614,3.4117a.8232.8232,0,0,1-.0146,1.1527l-2.9759,2.4172a.82.82,0,0,1-1.1288-.2239l-2.7613-3.4117a.8231.8231,0,0,1,.0146-1.1527l2.9758-2.4172A.82.82,0,0,1,1530.2534,163.3035Z" transform="translate(-1141.4507 -154.9269)"/><path class="cls-23" d="M1533.3314,162.0411l1.5524,1.918a.8233.8233,0,0,1-.0146,1.1527l-1.7455,1.4178-2.6666-3.2945,1.7455-1.4179A.82.82,0,0,1,1533.3314,162.0411Z" transform="translate(-1141.4507 -154.9269)"/><path class="cls-20" d="M1497.5845,192.8281l7.9163-3.4477-3.07-3.7923-5.0035,7.0471A.129.129,0,0,0,1497.5845,192.8281Z" transform="translate(-1141.4507 -154.9269)"/><polygon class="cls-6" points="391.785 18.603 388.926 15.072 391.128 13.283 393.986 16.815 391.785 18.603"/><path class="cls-6" d="M1522.7017,182.0865h0a.8106.8106,0,0,1,.0143-1.1317l12.9508-10.52a.8071.8071,0,0,1,1.1083.22h0a.81.81,0,0,1-.0144,1.1317l-12.9508,10.52A.8071.8071,0,0,1,1522.7017,182.0865Z" transform="translate(-1141.4507 -154.9269)"/></svg>