<?xml version="1.0" encoding="UTF-8"?>
<svg width="42px" height="42px" viewBox="0 0 42 42" version="1.1" xmlns="http://www.w3.org/2000/svg" xmlns:xlink="http://www.w3.org/1999/xlink">
    <!-- Generator: sketchtool 61.2 (101010) - https://sketch.com -->
    <title>8BA46B0E-0819-4145-A5F6-40670032563C@3x</title>
    <desc>Created with sketchtool.</desc>
    <g id="High-fidelity" stroke="none" stroke-width="1" fill="none" fill-rule="evenodd">
        <g id="Home-v2.1-Copy-65" transform="translate(-987.000000, -5669.000000)" fill="#5B6CC2" fill-rule="nonzero">
            <path d="M1026.68125,5669 L989.31875,5669 C988.03775,5669 987,5670.03775 987,5671.31875 L987,5708.683 C987,5709.96225 988.03775,5711 989.31875,5711 L1009.435,5711 L1009.435,5694.7355 L1003.961,5694.7355 L1003.961,5688.397 L1009.435,5688.397 L1009.435,5683.72275 C1009.435,5678.29775 1012.74775,5675.34375 1017.58825,5675.34375 C1019.907,5675.34375 1021.8985,5675.517 1022.4795,5675.594 L1022.4795,5681.264 L1019.123,5681.26575 C1016.491,5681.26575 1015.98175,5682.517 1015.98175,5684.351 L1015.98175,5688.39875 L1022.259,5688.39875 L1021.44175,5694.73725 L1015.98175,5694.73725 L1015.98175,5711 L1026.68475,5711 C1027.96225,5711 1029,5709.96225 1029,5708.68125 L1029,5671.31875 C1029,5670.03775 1027.96225,5669 1026.68125,5669 Z" id="Path-Copy-7"></path>
        </g>
    </g>
</svg>