<?xml version="1.0" encoding="UTF-8"?>
<svg width="54px" height="38px" viewBox="0 0 54 38" version="1.1" xmlns="http://www.w3.org/2000/svg" xmlns:xlink="http://www.w3.org/1999/xlink">
    <!-- Generator: sketchtool 61.2 (101010) - https://sketch.com -->
    <title>31CEE982-E87E-4ED5-BAEE-F6EBC159CB7F@3x</title>
    <desc>Created with sketchtool.</desc>
    <defs>
        <polygon id="path-1" points="0.0262114432 0.419819949 53.0716196 0.419819949 53.0716196 37.5697353 0.0262114432 37.5697353"></polygon>
    </defs>
    <g id="High-fidelity" stroke="none" stroke-width="1" fill="none" fill-rule="evenodd">
        <g id="Home-v2.1-Copy-65" transform="translate(-981.000000, -5813.000000)">
            <g id="yt_logo_rgb_light-copy-5" transform="translate(981.000000, 5813.000000)">
                <g id="Group-3">
                    <mask id="mask-2" fill="white">
                        <use xlink:href="#path-1"></use>
                    </mask>
                    <g id="Clip-2"></g>
                    <path d="M51.9624387,6.22041233 C51.352149,3.93739563 49.554044,2.13885377 47.2705904,1.528564 C43.1318035,0.419819949 26.5355914,0.419819949 26.5355914,0.419819949 C26.5355914,0.419819949 9.93981612,0.419819949 5.80102924,1.528564 C3.51757568,2.13885377 1.71947067,3.93739563 1.10918091,6.22041233 C0,10.3596361 0,18.9945592 0,18.9945592 C0,18.9945592 0,27.6299191 1.10918091,31.768706 C1.71947067,34.0517227 3.51757568,35.8507015 5.80102924,36.4605544 C9.93981612,37.5697353 26.5355914,37.5697353 26.5355914,37.5697353 C26.5355914,37.5697353 43.1318035,37.5697353 47.2705904,36.4605544 C49.554044,35.8507015 51.352149,34.0517227 51.9624387,31.768706 C53.0716196,27.6299191 53.0716196,18.9945592 53.0716196,18.9945592 C53.0716196,18.9945592 53.0716196,10.3596361 51.9624387,6.22041233" id="Fill-1" fill="#D9252A" mask="url(#mask-2)"></path>
                </g>
                <polyline id="Fill-4" fill="#F9DCDD" points="21.2286479 26.9554113 35.0163038 18.994996 21.2286479 11.033707 21.2286479 26.9554113"></polyline>
            </g>
        </g>
    </g>
</svg>