<?xml version="1.0" encoding="UTF-8"?>
<svg width="24px" height="24px" viewBox="0 0 24 24" version="1.1" xmlns="http://www.w3.org/2000/svg" xmlns:xlink="http://www.w3.org/1999/xlink">
    <!-- Generator: sketchtool 61.2 (101010) - https://sketch.com -->
    <title>6FFEFA4E-FFA5-4F57-B36A-3BAD4638BBD8@3x</title>
    <desc>Created with sketchtool.</desc>
    <g id="Asset-Artboard-Page" stroke="none" stroke-width="1" fill="none" fill-rule="evenodd">
        <g id="PodruÄja/Dizajn" fill="#CB5353">
            <g id="Group">
                <g id="design-tool-shape">
                    <path d="M13.8,8.965 C13.8225683,9.05660609 13.8947848,9.12770518 13.9867316,9.14884239 C14.0786785,9.1699796 14.1746936,9.13755445 14.235,9.065 C14.7315417,8.45947081 15.0019949,7.70008066 15.000011,6.917 C14.9977958,5.03075677 13.4692432,3.5022042 11.583,3.5 C10.8011867,3.50054095 10.0437811,3.77233045 9.44,4.269 C9.36744555,4.32930636 9.3350204,4.42532151 9.35615761,4.51726837 C9.37729482,4.60921522 9.44839391,4.68143169 9.54,4.704 C11.6205146,5.25910939 13.2453789,6.88435512 13.8,8.965 L13.8,8.965 Z" id="Shape"></path>
                    <path d="M17.75,8.5 L19.75,8.5 C20.1642136,8.5 20.5,8.16421356 20.5,7.75 C20.5,7.33578644 20.1642136,7 19.75,7 L17.75,7 C17.3357864,7 17,7.33578644 17,7.75 C17,8.16421356 17.3357864,8.5 17.75,8.5 Z" id="Shape"></path>
                    <path d="M17.75,11.5 L18.75,11.5 C19.1642136,11.5 19.5,11.1642136 19.5,10.75 C19.5,10.3357864 19.1642136,10 18.75,10 L17.75,10 C17.3357864,10 17,10.3357864 17,10.75 C17,11.1642136 17.3357864,11.5 17.75,11.5 Z" id="Shape"></path>
                    <path d="M7.75,19.25 L4.25,19.25 C3.83578644,19.25 3.5,19.5857864 3.5,20 C3.5,20.4142136 3.83578644,20.75 4.25,20.75 L7.75,20.75 C8.16421356,20.75 8.5,20.4142136 8.5,20 C8.5,19.5857864 8.16421356,19.25 7.75,19.25 Z" id="Shape"></path>
                    <path d="M17.75,5.5 L19.75,5.5 C20.1642136,5.5 20.5,5.16421356 20.5,4.75 C20.5,4.33578644 20.1642136,4 19.75,4 L17.75,4 C17.3357864,4 17,4.33578644 17,4.75 C17,5.16421356 17.3357864,5.5 17.75,5.5 Z" id="Shape"></path>
                    <path d="M24,1.98 C23.9988976,0.886933166 23.1130668,0.00110243839 22.02,-2.20046203e-16 L1.98,-2.20046203e-16 C0.886933166,0.00110243839 0.00110243839,0.886933166 -2.20046203e-16,1.98 L-2.20046203e-16,22.02 C0.00110243839,23.1130668 0.886933166,23.9988976 1.98,24 L22.02,24 C23.1130668,23.9988976 23.9988976,23.1130668 24,22.02 L24,1.98 Z M22,21.5 C22,21.7761424 21.7761424,22 21.5,22 L2.5,22.02 C2.22385763,22.02 2,21.7961424 2,21.52 L1.98,2.5 C1.98,2.22385763 2.20385763,2 2.48,2 L21.5,1.98 C21.7761424,1.98 22,2.20385763 22,2.48 L22,21.5 Z" id="Shape"></path>
                    <circle id="Oval" cx="8" cy="10.5" r="4.5"></circle>
                    <path d="M14.177,15.363 C14.223764,15.4100372 14.250009,15.4736722 14.25,15.54 L14.25,19.25 C14.2511012,19.9398993 14.8101007,20.4988988 15.5,20.5 L19.25,20.5 C19.9398993,20.4988988 20.4988988,19.9398993 20.5,19.25 L20.5,15.75 C20.4988988,15.0601007 19.9398993,14.5011012 19.25,14.5 L15.538,14.5 C15.4716722,14.500009 15.4080372,14.473764 15.361,14.427 L13.905,12.97 C13.6055652,12.6939988 13.1444348,12.6939988 12.845,12.97 C12.5544265,13.259902 12.551749,13.7298056 12.839,14.023 L12.845,14.03 L14.177,15.363 Z M18.7499996,15.9999996 C18.8880712,15.9999996 19,16.1119288 19,16.25 L19,18.75 C19,18.8880712 18.8880712,18.9999996 18.7499996,18.9999996 L16,18.9999996 C15.8619288,18.9999996 15.7499996,18.8880712 15.7499996,18.75 L15.7499996,17.539 C15.7498188,17.4377456 15.8107314,17.3463808 15.9042684,17.3076078 C15.9978053,17.2688349 16.1054929,17.2903116 16.177,17.362 L16.845,18.03 C17.1405098,18.3053589 17.6010097,18.2972339 17.8866218,18.0116218 C18.1722339,17.7260097 18.1803589,17.2655098 17.905,16.97 L17.362,16.427 C17.2903116,16.3554929 17.2688349,16.2478053 17.3076078,16.1542684 C17.3463808,16.0607314 17.4377456,15.9998188 17.539,15.9999996 L18.7499996,15.9999996 Z" id="Shape"></path>
                </g>
            </g>
        </g>
    </g>
</svg>