<?xml version="1.0" encoding="UTF-8"?>
<svg width="24px" height="24px" viewBox="0 0 24 24" version="1.1" xmlns="http://www.w3.org/2000/svg" xmlns:xlink="http://www.w3.org/1999/xlink">
    <!-- Generator: sketchtool 61.2 (101010) - https://sketch.com -->
    <title>62476FDA-FFDE-4700-81E9-2FC24C4CC299@3x</title>
    <desc>Created with sketchtool.</desc>
    <g id="Asset-Artboard-Page" stroke="none" stroke-width="1" fill="none" fill-rule="evenodd">
        <g id="PodruÄja/PM" fill="#D3CE3A">
            <g id="Group" transform="translate(0.500000, 0.000000)">
                <g id="Bold">
                    <path d="M15.205875,10.5775385 C15.3586695,10.5139752 15.4662759,10.3785949 15.4901144,10.2199347 C15.5139528,10.0612746 15.4506084,9.90206421 15.3227917,9.79938462 C14.9024138,9.46189475 14.4353936,9.18229875 13.935125,8.96861538 C13.8541984,8.93495171 13.7991312,8.86105645 13.7919103,8.77643391 C13.7846894,8.69181138 13.826491,8.6102472 13.900625,8.56430769 C15.5088114,7.55872962 16.2386363,5.65396902 15.694238,3.8831801 C15.1498397,2.11239118 13.4609381,0.897519745 11.5436042,0.897519745 C9.62627023,0.897519745 7.93736865,2.11239118 7.39297035,3.8831801 C6.84857204,5.65396902 7.57839691,7.55872962 9.18658333,8.56430769 C9.26018826,8.61047501 9.30166413,8.69173646 9.29466763,8.7760715 C9.28767113,8.86040654 9.23332411,8.93429261 9.15304167,8.96861538 C8.64062087,9.18662048 8.1630476,9.47381197 7.73470833,9.82153846 C7.60862329,9.92414961 7.54624628,10.0820448 7.56961713,10.2394346 C7.59298798,10.3968244 7.69881586,10.5315468 7.84970833,10.596 C8.73594988,10.9776421 9.50839039,11.5677183 10.0960417,12.312 C10.1865344,12.4282181 10.3285538,12.4966154 10.479375,12.4966154 L12.5244583,12.4966154 C12.6752795,12.4966154 12.8172989,12.4282181 12.9077917,12.312 C13.5074358,11.5542659 14.2986133,10.9571306 15.205875,10.5775385 L15.205875,10.5775385 Z M9.27091667,4.33846154 C9.29565407,4.27197654 9.35063692,4.22006307 9.42014122,4.19756735 C9.48964551,4.17507162 9.56601763,4.1844708 9.62741667,4.22307692 C10.5314356,4.7914116 11.5877132,5.09387853 12.66725,5.09353846 C13.0004245,5.09199802 13.3327541,5.06110001 13.6600833,5.00123077 C13.7320504,4.98846018 13.8061306,5.00807018 13.8612143,5.05447277 C13.916298,5.10087537 13.9463445,5.16898177 13.9427917,5.23938462 C13.8698491,6.49657448 12.7686136,7.46794019 11.4620412,7.42757779 C10.1554689,7.3872154 9.12111657,6.3498775 9.13195833,5.09076923 C9.13288378,4.83415722 9.1798966,4.57963415 9.27091667,4.33846154 L9.27091667,4.33846154 Z" id="Shape"></path>
                    <path d="M9.83920833,15.672 C9.85022123,13.6730814 8.38686844,11.9478771 6.35107771,11.5597053 C4.31528698,11.1715335 2.27991919,12.2296237 1.49945974,14.0818291 C0.719000284,15.9340345 1.41306638,18.0591541 3.153875,19.1473846 C3.22689775,19.1939202 3.26790053,19.2749997 3.26092609,19.3590689 C3.25395165,19.4431381 3.20010171,19.5169168 3.12033333,19.5516923 C2.75348003,19.7076115 2.40438103,19.8997136 2.078625,20.1249231 C1.33980903,20.6301797 0.732092963,21.2929333 0.302833333,22.0615385 C0.184863658,22.2757397 0.192012887,22.5338125 0.321674015,22.7416492 C0.451335143,22.949486 0.684556117,23.076708 0.936291667,23.0769231 L10.0845417,23.0769231 C10.3362772,23.076708 10.5694982,22.949486 10.6991593,22.7416492 C10.8288204,22.5338125 10.8359697,22.2757397 10.718,22.0615385 C10.2889818,21.2922631 9.6812484,20.6288588 8.94220833,20.1230769 C8.6164523,19.8978674 8.2673533,19.7057654 7.9005,19.5498462 C7.82021755,19.5155234 7.76587053,19.4416373 7.75887403,19.3573023 C7.75187754,19.2729672 7.7933534,19.1917058 7.86695833,19.1455385 C9.09298675,18.3844086 9.83535205,17.0769504 9.83920833,15.672 Z M3.23725,14.9169231 C3.2619874,14.8504381 3.31697025,14.7985246 3.38647455,14.7760289 C3.45597885,14.7535332 3.53235097,14.7629323 3.59375,14.8015385 C4.49776896,15.3698731 5.55404657,15.6723401 6.63358333,15.672 C6.96675785,15.6704596 7.29908738,15.6395615 7.62641667,15.5796923 C7.69843685,15.5676486 7.77227259,15.5872911 7.82766667,15.6332308 C7.8826194,15.6795896 7.91261199,15.7475642 7.909125,15.8178462 C7.8361824,17.075036 6.73494696,18.0464017 5.42837458,18.0060393 C4.1218022,17.9656769 3.0874499,16.928339 3.09829167,15.6692308 C3.09921711,15.4126188 3.14622993,15.1580957 3.23725,14.9169231 Z" id="Shape"></path>
                    <path d="M20.921375,20.1230769 C20.595619,19.8978674 20.24652,19.7057654 19.8796667,19.5498462 C19.7993842,19.5155234 19.7450372,19.4416373 19.7380407,19.3573023 C19.7310442,19.2729672 19.7725201,19.1917058 19.846125,19.1455385 C21.4545379,18.1401094 22.1846053,16.2352962 21.6402982,14.4643751 C21.0959912,12.6934539 19.407023,11.4784509 17.4895833,11.4784509 C15.5721437,11.4784509 13.8831754,12.6934539 13.3388684,14.4643751 C12.7945614,16.2352962 13.5246288,18.1401094 15.1330417,19.1455385 C15.2060644,19.1920741 15.2470672,19.2731536 15.2400928,19.3572227 C15.2331183,19.4412919 15.1792684,19.5150707 15.0995,19.5498462 C14.7326467,19.7057654 14.3835477,19.8978674 14.0577917,20.1230769 C13.3187516,20.6288588 12.7110182,21.2922631 12.282,22.0615385 C12.1640303,22.2757397 12.1711796,22.5338125 12.3008407,22.7416492 C12.4305018,22.949486 12.6637228,23.076708 12.9154583,23.0769231 L22.0637083,23.0769231 C22.3154439,23.076708 22.5486649,22.949486 22.678326,22.7416492 C22.8079871,22.5338125 22.8151363,22.2757397 22.6971667,22.0615385 C22.2681485,21.2922631 21.6604151,20.6288588 20.921375,20.1230769 L20.921375,20.1230769 Z M15.2164167,14.9169231 C15.2411541,14.8504381 15.2961369,14.7985246 15.3656412,14.7760289 C15.4351455,14.7535332 15.5115176,14.7629323 15.5729167,14.8015385 C16.4769356,15.3698731 17.5332132,15.6723401 18.61275,15.672 C18.9459245,15.6704596 19.2782541,15.6395615 19.6055833,15.5796923 C19.6776035,15.5676486 19.7514393,15.5872911 19.8068333,15.6332308 C19.8617861,15.6795896 19.8917787,15.7475642 19.8882917,15.8178462 C19.8153491,17.075036 18.7141136,18.0464017 17.4075412,18.0060393 C16.1009689,17.9656769 15.0666166,16.928339 15.0774583,15.6692308 C15.0783838,15.4126188 15.1253966,15.1580957 15.2164167,14.9169231 Z" id="Shape"></path>
                </g>
            </g>
        </g>
    </g>
</svg>