<?xml version="1.0" encoding="UTF-8"?>
<svg width="24px" height="24px" viewBox="0 0 24 24" version="1.1" xmlns="http://www.w3.org/2000/svg" xmlns:xlink="http://www.w3.org/1999/xlink">
    <!-- Generator: sketchtool 61.2 (101010) - https://sketch.com -->
    <title>22C15417-B2A4-41EC-8489-153EBB4EEFA2@3x</title>
    <desc>Created with sketchtool.</desc>
    <g id="Asset-Artboard-Page" stroke="none" stroke-width="1" fill="none" fill-rule="evenodd" stroke-linecap="round" stroke-linejoin="round">
        <g id="PodruÄja/Prezentacijske" stroke="#282D30" stroke-width="1.5">
            <g id="Group">
                <g id="school-teacher-a">
                    <circle id="Oval" cx="5.25" cy="3.75" r="3"></circle>
                    <line x1="5.25" y1="8.25" x2="5.25" y2="14.25" id="Shape"></line>
                    <path d="M7.5,23.2500001 L8.25,15.7500001 L9.75,15.7500001 L9.75,12.7500001 C9.75,10.2647187 7.73528135,8.25000007 5.25,8.25000007 C2.76471865,8.25000007 0.75,10.2647187 0.75,12.7500001 L0.75,15.7500001 L2.25,15.7500001 L3,23.2500001 L7.5,23.2500001 Z" id="Shape"></path>
                    <line x1="23.25" y1="0.75" x2="11.25" y2="0.75" id="Shape"></line>
                    <line x1="12.75" y1="16.5" x2="23.25" y2="16.5" id="Shape"></line>
                    <path d="M16.5,12 L16.5,6 C16.5,5.17157288 17.1715729,4.5 18,4.5 C18.8284271,4.5 19.5,5.17157288 19.5,6 L19.5,12" id="Shape"></path>
                    <line x1="16.5" y1="9" x2="19.5" y2="9" id="Shape"></line>
                </g>
            </g>
        </g>
    </g>
</svg>