<?xml version="1.0" encoding="UTF-8"?>
<svg width="24px" height="24px" viewBox="0 0 24 24" version="1.1" xmlns="http://www.w3.org/2000/svg" xmlns:xlink="http://www.w3.org/1999/xlink">
    <!-- Generator: sketchtool 61.2 (101010) - https://sketch.com -->
    <title>D830DA1D-719E-4FD7-96C0-6654787BBE2D@3x</title>
    <desc>Created with sketchtool.</desc>
    <g id="Asset-Artboard-Page" stroke="none" stroke-width="1" fill="none" fill-rule="evenodd">
        <g id="PodruÄja/UIdev" fill="#5CC2A0" fill-rule="nonzero">
            <g id="Group">
                <g id="responsive-design-image">
                    <path d="M13.482,13.75 C13.3035383,13.7378244 13.1301176,13.8122539 13.016,13.95 L11.3,16.464 C11.2216032,16.5792398 11.0986633,16.6565264 10.9608299,16.6772203 C10.8229966,16.6979143 10.6827813,16.6601373 10.574,16.573 L8.951,15.267 C8.82842498,15.1787334 8.67861677,15.1365888 8.528,15.148 C8.38210829,15.1493955 8.24239058,15.2070738 8.138,15.309 L6.248,17.416 C6.11618807,17.5628403 6.08306513,17.7734695 6.1634462,17.9536787 C6.24382727,18.1338878 6.42267676,18.2500003 6.62,18.2500003 L15.62,18.2500003 C15.7999667,18.2501826 15.966147,18.1536354 16.0551234,17.9972025 C16.1440998,17.8407696 16.1421431,17.6485888 16.05,17.494 L13.935,13.96 C13.8277038,13.8197871 13.6583406,13.7412743 13.482,13.75 Z" id="Shape"></path>
                    <circle id="Oval" cx="6" cy="12.25" r="1.5"></circle>
                    <path d="M0,19.25 C0,20.9068542 1.34314575,22.25 3,22.25 L19,22.25 C20.6568542,22.25 22,20.9068542 22,19.25 L22,14.75 C22,14.1977153 21.5522847,13.75 21,13.75 C20.4477153,13.75 20,14.1977153 20,14.75 L20,19.25 C20,19.8022847 19.5522847,20.25 19,20.25 L3,20.25 C2.44771525,20.25 2,19.8022847 2,19.25 L2,9.25 C2,8.69771525 2.44771525,8.25 3,8.25 L15,8.25 C15.2761424,8.25 15.5,8.02614237 15.5,7.75 L15.5,4.25 C15.5,3.97385763 15.2761424,3.75 15,3.75 L3,3.75 C1.34314575,3.75 0,5.09314575 0,6.75 L0,19.25 Z M9.654,5.75 C9.82390498,5.4417474 10.1480236,5.25030462 10.5,5.25030462 C10.8519764,5.25030462 11.176095,5.4417474 11.346,5.75 C11.4422064,5.89939418 11.4954817,6.07236588 11.5,6.25 C11.5,6.80228475 11.0522847,7.25 10.5,7.25 C9.94771525,7.25 9.5,6.80228475 9.5,6.25 C9.5045183,6.07236588 9.55779358,5.89939418 9.654,5.75 L9.654,5.75 Z M6.154,5.75 C6.32390498,5.4417474 6.64802363,5.25030462 7,5.25030462 C7.35197637,5.25030462 7.67609502,5.4417474 7.846,5.75 C7.94220642,5.89939418 7.9954817,6.07236588 8,6.25 C8,6.80228475 7.55228475,7.25 7,7.25 C6.44771525,7.25 6,6.80228475 6,6.25 C6.0045183,6.07236588 6.05779358,5.89939418 6.154,5.75 Z M2.592,5.842 C2.75219526,5.48351784 3.10735748,5.25195832 3.5,5.25 C3.85093848,5.25404709 4.17321472,5.44451768 4.346,5.75 C4.44220642,5.89939418 4.4954817,6.07236588 4.5,6.25 C4.5,6.80228475 4.05228475,7.25 3.5,7.25 C2.94771525,7.25 2.5,6.80228475 2.5,6.25 C2.50091882,6.10896068 2.53230155,5.96978509 2.592,5.842 L2.592,5.842 Z" id="Shape"></path>
                    <path d="M19,1.75 C17.8954305,1.75 17,2.6454305 17,3.75 L17,10.25 C17,11.3545695 17.8954305,12.25 19,12.25 L22,12.25 C23.1045695,12.25 24,11.3545695 24,10.25 L24,3.75 C24,2.6454305 23.1045695,1.75 22,1.75 L19,1.75 Z M22,8.5 C22,8.63807119 21.8880712,8.75 21.75,8.75 L19.25,8.75 C19.1119288,8.75 19,8.63807119 19,8.5 L19,4 C19,3.86192881 19.1119288,3.75 19.25,3.75 L21.75,3.75 C21.8880712,3.75 22,3.86192881 22,4 L22,8.5 Z" id="Shape"></path>
                </g>
            </g>
        </g>
    </g>
</svg>