<?xml version="1.0" encoding="UTF-8"?>
<svg width="24px" height="24px" viewBox="0 0 24 24" version="1.1" xmlns="http://www.w3.org/2000/svg" xmlns:xlink="http://www.w3.org/1999/xlink">
    <!-- Generator: sketchtool 61.2 (101010) - https://sketch.com -->
    <title>53DC0787-E684-4307-97F1-B6C131096821@3x</title>
    <desc>Created with sketchtool.</desc>
    <g id="Asset-Artboard-Page" stroke="none" stroke-width="1" fill="none" fill-rule="evenodd">
        <g id="Područja/Dizajn-Copy-2-Područja/Marketing" fill="#CD7851">
            <g id="Group">
                <g id="content-write">
                    <path d="M13.742,21.333 C13.7422657,21.0791065 13.6415246,20.8355353 13.4619946,20.6560054 C13.2824647,20.4764754 13.0388935,20.3757343 12.785,20.376 L3.255,20.376 C2.70271525,20.376 2.255,19.9282847 2.255,19.376 L2.255,3.667 C2.255,3.11471525 2.70271525,2.667 3.255,2.667 L14.655,2.667 C15.2072847,2.667 15.655,3.11471525 15.655,3.667 L15.655,7.453 C15.655,7.98153651 16.0834635,8.41 16.612,8.41 C17.1405365,8.41 17.5690003,7.98153651 17.5690003,7.453 L17.5690003,2.667 C17.5695527,1.61031713 16.7136824,0.753104017 15.657,0.752 L2.255,0.752 C1.74720233,0.752 1.26021733,0.953790189 0.901243945,1.31295113 C0.542270557,1.67211207 0.340734693,2.1592024 0.340999738,2.667 L0.340999738,20.376 C0.340999738,21.433073 1.19792699,22.2900005 2.255,22.2900005 L12.785,22.2900005 C13.0388935,22.2902657 13.2824647,22.1895246 13.4619946,22.0099946 C13.6415246,21.8304647 13.7422657,21.5868935 13.742,21.333 Z" id="Shape"></path>
                    <path d="M8,5.3 C7.61415335,5.31440719 7.30879086,5.63138447 7.30879086,6.0175 C7.30879086,6.40361553 7.61415335,6.72059281 8,6.735 L12.786,6.735 C13.1825405,6.735 13.504,6.41354045 13.504,6.017 C13.504,5.62045955 13.1825405,5.299 12.786,5.299 L8,5.3 Z" id="Shape"></path>
                    <path d="M4.888,5.06 C4.35946349,5.06 3.931,5.48846349 3.931,6.017 C3.931,6.54553651 4.35946349,6.974 4.888,6.974 C5.41653651,6.974 5.845,6.54553651 5.845,6.017 C5.84444882,5.48869197 5.41630803,5.06055118 4.888,5.06 L4.888,5.06 Z" id="Shape"></path>
                    <path d="M7.515,16.172 C7.46977478,16.097953 7.38926564,16.0527873 7.3025,16.0527873 C7.21573436,16.0527873 7.13522522,16.097953 7.09,16.172 L5.87,18.127 C5.82028275,18.2075517 5.82011145,18.3092228 5.86955697,18.3899415 C5.9190025,18.4706603 6.00965413,18.5166964 6.104,18.509 L8.404,18.309 C8.49044057,18.3020761 8.56705304,18.250679 8.60624193,18.1733218 C8.64543083,18.0959645 8.64155102,18.0037904 8.596,17.93 L7.515,16.172 Z" id="Shape"></path>
                    <path d="M10.3,10.589 C9.82527638,10.9291255 9.50967143,11.448032 9.426,12.026 L9.286,13.007 C9.2721138,13.1029398 9.31494211,13.1982589 9.39589595,13.2515857 C9.47684978,13.3049124 9.58133447,13.3066327 9.664,13.256 L14.817,10.1 C14.8932969,10.05288 14.9386595,9.96863504 14.936,9.879 C14.933335,9.78920669 14.88251,9.7078103 14.803,9.666 C14.472,9.489 14.014,9.249 13.795,9.139 C13.2645418,8.8733262 12.6306259,8.92297716 12.148,9.268 L10.3,10.589 Z" id="Shape"></path>
                    <path d="M10.475,17.248 C10.5732368,17.1880154 10.6178219,17.068709 10.583,16.959 C10.5159807,16.7481854 10.4822422,16.5282099 10.483,16.307 C10.4846536,15.1182262 11.4482256,14.1551016 12.637,14.154 L15.455,14.154 C15.5012198,14.1538154 15.5465131,14.1410226 15.586,14.117 L18.649,12.24 C19.0919423,11.9745998 19.3582863,11.491818 19.3465607,10.9755839 C19.3348351,10.4593498 19.0468456,9.98915894 18.5923099,9.74414379 C18.1377742,9.49912863 17.5866868,9.51701936 17.149,9.791 L8.383,15.162 C8.32639696,15.1963788 8.285821,15.2518899 8.27024515,15.3162576 C8.2546693,15.3806252 8.26537688,15.4485461 8.3,15.505 L9.539,17.528 C9.57354733,17.5847132 9.6293175,17.6252768 9.69391469,17.6406749 C9.75851188,17.6560731 9.82658367,17.64503 9.883,17.61 L10.475,17.248 Z" id="Shape"></path>
                    <path d="M14.623,17.5 C14.7239652,17.500201 14.8149817,17.5608787 14.854,17.654 L17.118,23.09 C17.1570183,23.1831213 17.2480348,23.243799 17.349,23.244 L23.409,23.244 C23.5020049,23.2435337 23.5872552,23.1920763 23.631,23.11 C23.6738816,23.0281448 23.6681131,22.9293108 23.616,22.853 L17.801,14.353 C17.7234303,14.2403081 17.5696871,14.2108964 17.456,14.287 L16.288,15.065 C16.2470753,15.0921478 16.1991098,15.106746 16.15,15.107 L12.636,15.107 C12.1866851,15.0726077 11.7559775,15.2928406 11.5207991,15.6772334 C11.2856208,16.0616263 11.2856208,16.5453737 11.5207991,16.9297666 C11.7559775,17.3141594 12.1866851,17.5343923 12.636,17.5 L14.623,17.5 Z" id="Shape"></path>
                </g>
            </g>
        </g>
    </g>
</svg>